# xmcd CD database file
# Copyright (C) 1993-1998 Ti Kan
# 
# Track frame offsets:
#     150
#     14160
#     25350
#     41083
#     56703
#     67983
#     79700
#     101565
#     114898
#     127873
#     147833
#     163970
#     183398
#     205720
#     226723
#     246825
#     259450
#     277408
#     287138
#     304145
# 
# Disc length: 4310 seconds
# 
# Revision: 1
# Processed by: cddbd v1.4b41PL1 Copyright (c) Steve Scherf et al.
# Submitted via: DiscPlay 4.0.4
# 
DISCID=2810d414
DTITLE=The Staple Singers - Respect Yourself: The Best Of
DYEAR=1900
DGENRE=
TTITLE0=Heavy Makes You Happy
TTITLE1=Long Walk To D.C.
TTITLE2=This World
TTITLE3=You've Got To Earn It
TTITLE4=Love Is Plentiful
TTITLE5=Got To Be Some Changes
TTITLE6=Respect Yourself
TTITLE7=I See It
TTITLE8=We'll Get Over
TTITLE9=I'll Take You There
TTITLE10=Oh La De Da
TTITLE11=Are You Sure
TTITLE12=Be What You Are
TTITLE13=This Old Town (People In This Town)
TTITLE14=If You're Ready (Come Go With Me)
TTITLE15=Slow Train
TTITLE16=Touch A Hand, Make A Friend
TTITLE17=May Main Man
TTITLE18=City In The Sky
TTITLE19=People Come Out Of Your Shell
EXTD=
EXTT0=
EXTT1=
EXTT2=
EXTT3=
EXTT4=
EXTT5=
EXTT6=
EXTT7=
EXTT8=
EXTT9=
EXTT10=
EXTT11=
EXTT12=
EXTT13=
EXTT14=
EXTT15=
EXTT16=
EXTT17=
EXTT18=
EXTT19=
PLAYORDER=
